<?xml version="1.0" encoding="utf-8"?>
<svg version="1.1" xmlns:xlink="http://www.w3.org/1999/xlink" width="60px" height="60px" xmlns="http://www.w3.org/2000/svg">
  <g transform="matrix(1 0 0 1 -40 -1106 )">
    <path d="M 40 1106  L 100 1106  L 100 1166  L 40 1166  L 40 1106  " fill-rule="nonzero" fill="#cccccc" stroke="none" />
    <path d="M 44 1110  L 96 1110  L 96 1162  L 44 1162  L 44 1110  " fill-rule="nonzero" fill="#ffffff" stroke="none" />
    <path d="M 75.7 1124  C 73.18 1124  71.2 1122.02  71.2 1119.5  C 71.2 1116.98  73.18 1115  75.7 1115  C 78.22 1115  80.2 1116.98  80.2 1119.5  C 80.2 1122.02  78.22 1124  75.7 1124  " fill-rule="nonzero" fill="#cccccc" stroke="none" />
    <path d="M 46 1161  L 46 1134.05  L 58.25 1121.8  L 75.4 1131.6  L 85.2 1129.15  L 95 1131.6  L 95 1161  L 46 1161  " fill-rule="nonzero" fill="#169bd5" stroke="none" />
  </g>
</svg>