<?xml version="1.0" encoding="utf-8"?>
<svg version="1.1" xmlns:xlink="http://www.w3.org/1999/xlink" width="375px" height="139px" xmlns="http://www.w3.org/2000/svg">
  <g transform="matrix(1 0 0 1 0 -658 )">
    <path d="M 0 658  L 375 658  L 375 797  L 0 797  L 0 658  " fill-rule="nonzero" fill="#cccccc" stroke="none" />
    <path d="M 10 668  L 365 668  L 365 787  L 10 787  L 10 668  " fill-rule="nonzero" fill="#ffffff" stroke="none" />
    <path d="M 205.425 699.7  C 199.587 699.7  195 695.113  195 689.275  C 195 683.437  199.587 678.85  205.425 678.85  C 211.263 678.85  215.85 683.437  215.85 689.275  C 215.85 695.113  211.263 699.7  205.425 699.7  " fill-rule="nonzero" fill="#cccccc" stroke="none" />
    <path d="M 14 784  L 14 722.4  L 101 694.4  L 222.8 759.0912  L 292.4 711.2  L 362 759.0912  L 362 784  L 14 784  " fill-rule="nonzero" fill="#169bd5" stroke="none" />
  </g>
</svg>