<?xml version="1.0" encoding="utf-8"?>
<svg version="1.1" xmlns:xlink="http://www.w3.org/1999/xlink" width="375px" height="166px" xmlns="http://www.w3.org/2000/svg">
  <g transform="matrix(1 0 0 1 0 -53 )">
    <path d="M 0 53  L 375 53  L 375 219  L 0 219  L 0 53  " fill-rule="nonzero" fill="#cccccc" stroke="none" />
    <path d="M 12 65  L 363 65  L 363 207  L 12 207  L 12 65  " fill-rule="nonzero" fill="#ffffff" stroke="none" />
    <path d="M 207.45 102.8  C 200.478 102.8  195 97.322  195 90.35  C 195 83.378  200.478 77.9  207.45 77.9  C 214.422 77.9  219.9 83.378  219.9 90.35  C 219.9 97.322  214.422 102.8  207.45 102.8  " fill-rule="nonzero" fill="#cccccc" stroke="none" />
    <path d="M 16 203  L 16 129.3  L 101.75 95.8  L 221.8 167.4096  L 290.4 115.9  L 359 167.4096  L 359 203  L 16 203  " fill-rule="nonzero" fill="#169bd5" stroke="none" />
  </g>
</svg>