<?xml version="1.0" encoding="utf-8"?>
<svg version="1.1" xmlns:xlink="http://www.w3.org/1999/xlink" width="30px" height="40px" xmlns="http://www.w3.org/2000/svg">
  <defs>
    <mask fill="white" id="clip40">
      <path d="M 20 10.5  C 20 14.607086060875  18.2007300361137 17.8145371398069  15.9159246129506 21.1076541152528  C 14.0284189572287 23.8281382549932  11.8095541008666 26.607086060875  10 30  C 6 22.5  0 18  0 10.5  C 0 6.6  2 0  10 0  C 18 0  20 6.6  20 10.5  Z " fill-rule="evenodd" />
    </mask>
    <filter x="22px" y="-19px" width="30px" height="40px" filterUnits="userSpaceOnUse" id="filter41">
      <feOffset dx="1" dy="1" in="SourceAlpha" result="shadowOffsetInner" />
      <feGaussianBlur stdDeviation="2.5" in="shadowOffsetInner" result="shadowGaussian" />
      <feComposite in2="shadowGaussian" operator="atop" in="SourceAlpha" result="shadowComposite" />
      <feColorMatrix type="matrix" values="0 0 0 0 0  0 0 0 0 0  0 0 0 0 0  0 0 0 0.698039215686274 0  " in="shadowComposite" />
    </filter>
    <g id="widget42">
      <path d="M 20 10.5  C 20 14.607086060875  18.2007300361137 17.8145371398069  15.9159246129506 21.1076541152528  C 14.0284189572287 23.8281382549932  11.8095541008666 26.607086060875  10 30  C 6 22.5  0 18  0 10.5  C 0 6.6  2 0  10 0  C 18 0  20 6.6  20 10.5  Z " fill-rule="nonzero" fill="#009dd9" stroke="none" transform="matrix(1 0 0 1 26 -15 )" />
      <path d="M 20 10.5  C 20 14.607086060875  18.2007300361137 17.8145371398069  15.9159246129506 21.1076541152528  C 14.0284189572287 23.8281382549932  11.8095541008666 26.607086060875  10 30  C 6 22.5  0 18  0 10.5  C 0 6.6  2 0  10 0  C 18 0  20 6.6  20 10.5  Z " stroke-width="2" stroke="#ffffff" fill="none" transform="matrix(1 0 0 1 26 -15 )" mask="url(#clip40)" />
    </g>
  </defs>
  <g transform="matrix(1 0 0 1 -22 19 )">
    <use xlink:href="#widget42" filter="url(#filter41)" />
    <use xlink:href="#widget42" />
  </g>
</svg>