<?xml version="1.0" encoding="utf-8"?>
<svg version="1.1" xmlns:xlink="http://www.w3.org/1999/xlink" width="30px" height="40px" xmlns="http://www.w3.org/2000/svg">
  <defs>
    <mask fill="white" id="clip46">
      <path d="M 20 10.5  C 20 14.6070860608751  18.2007300361137 17.8145371398069  15.9159246129506 21.1076541152528  C 14.0284189572287 23.8281382549932  11.8095541008666 26.6070860608751  10 30  C 6 22.5  0 18  0 10.5  C 0 9.22302094146096  0.214421501110721 7.65657285642249  0.783680793905958 6.12712362046875  C 1.95306620207616 2.98541887732699  4.61952452043488 0  10 0  C 16.0337279572261 0  18.6544053149073 3.75435565949931  19.5781503082021 7.27309208175461  C 19.8791804454314 8.4197783596278  20 9.54144237914772  20 10.5  Z " fill-rule="evenodd" />
    </mask>
    <filter x="94px" y="824px" width="30px" height="40px" filterUnits="userSpaceOnUse" id="filter47">
      <feOffset dx="1" dy="1" in="SourceAlpha" result="shadowOffsetInner" />
      <feGaussianBlur stdDeviation="2.5" in="shadowOffsetInner" result="shadowGaussian" />
      <feComposite in2="shadowGaussian" operator="atop" in="SourceAlpha" result="shadowComposite" />
      <feColorMatrix type="matrix" values="0 0 0 0 0  0 0 0 0 0  0 0 0 0 0  0 0 0 0.698039215686274 0  " in="shadowComposite" />
    </filter>
    <g id="widget48">
      <path d="M 20 10.5  C 20 14.6070860608751  18.2007300361137 17.8145371398069  15.9159246129506 21.1076541152528  C 14.0284189572287 23.8281382549932  11.8095541008666 26.6070860608751  10 30  C 6 22.5  0 18  0 10.5  C 0 9.22302094146096  0.214421501110721 7.65657285642249  0.783680793905958 6.12712362046875  C 1.95306620207616 2.98541887732699  4.61952452043488 0  10 0  C 16.0337279572261 0  18.6544053149073 3.75435565949931  19.5781503082021 7.27309208175461  C 19.8791804454314 8.4197783596278  20 9.54144237914772  20 10.5  Z " fill-rule="nonzero" fill="#009dd9" stroke="none" transform="matrix(1 0 0 1 98 828 )" />
      <path d="M 20 10.5  C 20 14.6070860608751  18.2007300361137 17.8145371398069  15.9159246129506 21.1076541152528  C 14.0284189572287 23.8281382549932  11.8095541008666 26.6070860608751  10 30  C 6 22.5  0 18  0 10.5  C 0 9.22302094146096  0.214421501110721 7.65657285642249  0.783680793905958 6.12712362046875  C 1.95306620207616 2.98541887732699  4.61952452043488 0  10 0  C 16.0337279572261 0  18.6544053149073 3.75435565949931  19.5781503082021 7.27309208175461  C 19.8791804454314 8.4197783596278  20 9.54144237914772  20 10.5  Z " stroke-width="2" stroke="#ffffff" fill="none" transform="matrix(1 0 0 1 98 828 )" mask="url(#clip46)" />
    </g>
  </defs>
  <g transform="matrix(1 0 0 1 -94 -824 )">
    <use xlink:href="#widget48" filter="url(#filter47)" />
    <use xlink:href="#widget48" />
  </g>
</svg>