<?xml version="1.0" encoding="utf-8"?>
<svg version="1.1" xmlns:xlink="http://www.w3.org/1999/xlink" width="40px" height="40px" xmlns="http://www.w3.org/2000/svg">
  <defs>
    <filter x="946px" y="-4px" width="40px" height="40px" filterUnits="userSpaceOnUse" id="filter49">
      <feOffset dx="1" dy="1" in="SourceAlpha" result="shadowOffsetInner" />
      <feGaussianBlur stdDeviation="2.5" in="shadowOffsetInner" result="shadowGaussian" />
      <feComposite in2="shadowGaussian" operator="atop" in="SourceAlpha" result="shadowComposite" />
      <feColorMatrix type="matrix" values="0 0 0 0 0  0 0 0 0 0  0 0 0 0 0  0 0 0 0.698039215686274 0  " in="shadowComposite" />
    </filter>
    <g id="widget50">
      <path d="M 965 0  C 973.4 0  980 6.6  980 15  C 980 23.4  973.4 30  965 30  C 956.6 30  950 23.4  950 15  C 950 6.6  956.6 0  965 0  Z " fill-rule="nonzero" fill="#009dd9" stroke="none" />
      <path d="M 965 0.5  C 973.12 0.5  979.5 6.88  979.5 15  C 979.5 23.12  973.12 29.5  965 29.5  C 956.88 29.5  950.5 23.12  950.5 15  C 950.5 6.88  956.88 0.5  965 0.5  Z " stroke-width="1" stroke="#ffffff" fill="none" />
    </g>
  </defs>
  <g transform="matrix(1 0 0 1 -946 4 )">
    <use xlink:href="#widget50" filter="url(#filter49)" />
    <use xlink:href="#widget50" />
  </g>
</svg>