<?xml version="1.0" encoding="utf-8"?>
<svg version="1.1" xmlns:xlink="http://www.w3.org/1999/xlink" width="40px" height="40px" xmlns="http://www.w3.org/2000/svg">
  <defs>
    <mask fill="white" id="clip37">
      <path d="M 40 917  C 28.9 917  20 908.1  20 897  L 20 897  C 20 885.9  28.9 877  40 877  L 40 877  C 51.1 877  60 885.9  60 897  L 60 897  C 60 908.1  51.1 917  40 917  " fill-rule="evenodd" />
    </mask>
  </defs>
  <g transform="matrix(1 0 0 1 -20 -877 )">
    <path d="M 20 877  L 60 877  L 60 917  L 20 917  L 20 877  " fill-rule="nonzero" fill="#cccccc" stroke="none" mask="url(#clip37)" />
    <path d="M 23 880  L 57 880  L 57 914  L 23 914  L 23 880  " fill-rule="nonzero" fill="#ffffff" stroke="none" mask="url(#clip37)" />
    <path d="M 43.8 889  C 42.12 889  40.8 887.68  40.8 886  C 40.8 884.32  42.12 883  43.8 883  C 45.48 883  46.8 884.32  46.8 886  C 46.8 887.68  45.48 889  43.8 889  " fill-rule="nonzero" fill="#cccccc" stroke="none" mask="url(#clip37)" />
    <path d="M 24 913  L 24 895.4  L 32 887.4  L 43.2 893.8  L 49.6 892.2  L 56 893.8  L 56 913  L 24 913  " fill-rule="nonzero" fill="#169bd5" stroke="none" mask="url(#clip37)" />
  </g>
</svg>