<?xml version="1.0" encoding="utf-8"?>
<svg version="1.1" xmlns:xlink="http://www.w3.org/1999/xlink" width="30px" height="40px" xmlns="http://www.w3.org/2000/svg">
  <defs>
    <filter x="105px" y="113px" width="30px" height="40px" filterUnits="userSpaceOnUse" id="filter71">
      <feOffset dx="1" dy="1" in="SourceAlpha" result="shadowOffsetInner" />
      <feGaussianBlur stdDeviation="2.5" in="shadowOffsetInner" result="shadowGaussian" />
      <feComposite in2="shadowGaussian" operator="atop" in="SourceAlpha" result="shadowComposite" />
      <feColorMatrix type="matrix" values="0 0 0 0 0  0 0 0 0 0  0 0 0 0 0  0 0 0 0.698039215686274 0  " in="shadowComposite" />
    </filter>
    <g id="widget72">
      <path d="M 119 145.95558796737  C 115.2 138.857284902997  109.5 134.598303064373  109.5 127.5  C 109.5 123.785714285714  111.4 117.5  119 117.5  C 126.6 117.5  128.5 123.785714285714  128.5 127.5  C 128.5 134.598303064373  122.8 138.857284902997  119 145.95558796737  Z " fill-rule="nonzero" fill="#009dd9" stroke="none" />
      <path d="M 119 147  C 115 139.5  109 135  109 127.5  C 109 123.6  111 117  119 117  C 127 117  129 123.6  129 127.5  C 129 135  123 139.5  119 147  Z M 119 144.91117593474  C 122.6 138.214569805994  128 134.196606128746  128 127.5  C 128 123.971428571429  126.2 118  119 118  C 111.8 118  110 123.971428571429  110 127.5  C 110 134.196606128746  115.4 138.214569805994  119 144.91117593474  Z " fill-rule="nonzero" fill="#ffffff" stroke="none" />
    </g>
  </defs>
  <g transform="matrix(1 0 0 1 -105 -113 )">
    <use xlink:href="#widget72" filter="url(#filter71)" />
    <use xlink:href="#widget72" />
  </g>
</svg>