<?xml version="1.0" encoding="utf-8"?>
<svg version="1.1" xmlns:xlink="http://www.w3.org/1999/xlink" width="115px" height="112px" xmlns="http://www.w3.org/2000/svg">
  <g transform="matrix(1 0 0 1 0 -122 )">
    <path d="M 0 122  L 115 122  L 115 234  L 0 234  L 0 122  " fill-rule="nonzero" fill="#cccccc" stroke="none" />
    <path d="M 8 130  L 107 130  L 107 226  L 8 226  L 8 130  " fill-rule="nonzero" fill="#ffffff" stroke="none" />
    <path d="M 68.2 155.6  C 63.496 155.6  59.8 151.904  59.8 147.2  C 59.8 142.496  63.496 138.8  68.2 138.8  C 72.904 138.8  76.6 142.496  76.6 147.2  C 76.6 151.904  72.904 155.6  68.2 155.6  " fill-rule="nonzero" fill="#cccccc" stroke="none" />
    <path d="M 11 223  L 11 173.5  L 34.25 151  L 66.8 170.408695652174  L 85.4 164.5  L 104 170.408695652174  L 104 223  L 11 223  " fill-rule="nonzero" fill="#169bd5" stroke="none" />
  </g>
</svg>