<?xml version="1.0" encoding="utf-8"?>
<svg version="1.1" xmlns:xlink="http://www.w3.org/1999/xlink" width="30px" height="30px" xmlns="http://www.w3.org/2000/svg">
  <g transform="matrix(1 0 0 1 -22 -204 )">
    <path d="M 37 204  C 45.4 204  52 210.6  52 219  C 52 227.4  45.4 234  37 234  C 28.6 234  22 227.4  22 219  C 22 210.6  28.6 204  37 204  Z " fill-rule="nonzero" fill="#ffffff" stroke="none" />
    <path d="M 37 204.5  C 45.12 204.5  51.5 210.88  51.5 219  C 51.5 227.12  45.12 233.5  37 233.5  C 28.88 233.5  22.5 227.12  22.5 219  C 22.5 210.88  28.88 204.5  37 204.5  Z " stroke-width="1" stroke="#797979" fill="none" />
  </g>
</svg>