<?xml version="1.0" encoding="utf-8"?>
<svg version="1.1" xmlns:xlink="http://www.w3.org/1999/xlink" width="57px" height="58px" xmlns="http://www.w3.org/2000/svg">
  <g transform="matrix(1 0 0 1 -31 -40 )">
    <path d="M 31 40  L 88 40  L 88 98  L 31 98  L 31 40  " fill-rule="nonzero" fill="#cccccc" stroke="none" />
    <path d="M 35 44  L 84 44  L 84 94  L 35 94  L 35 44  " fill-rule="nonzero" fill="#ffffff" stroke="none" />
    <path d="M 64.915 57.25  C 62.521 57.25  60.64 55.369  60.64 52.975  C 60.64 50.581  62.521 48.7  64.915 48.7  C 67.309 48.7  69.19 50.581  69.19 52.975  C 69.19 55.369  67.309 57.25  64.915 57.25  " fill-rule="nonzero" fill="#cccccc" stroke="none" />
    <path d="M 37 93  L 37 67.15  L 48.5 55.4  L 64.6 64.8  L 73.8 62.45  L 83 64.8  L 83 93  L 37 93  " fill-rule="nonzero" fill="#169bd5" stroke="none" />
  </g>
</svg>