<?xml version="1.0" encoding="utf-8"?>
<svg version="1.1" xmlns:xlink="http://www.w3.org/1999/xlink" width="375px" height="168px" xmlns="http://www.w3.org/2000/svg">
  <g transform="matrix(1 0 0 1 0 -75 )">
    <path d="M 0 75  L 375 75  L 375 243  L 0 243  L 0 75  " fill-rule="nonzero" fill="#cccccc" stroke="none" />
    <path d="M 12 87  L 363 87  L 363 231  L 12 231  L 12 87  " fill-rule="nonzero" fill="#ffffff" stroke="none" />
    <path d="M 207.6 125.4  C 200.544 125.4  195 119.856  195 112.8  C 195 105.744  200.544 100.2  207.6 100.2  C 214.656 100.2  220.2 105.744  220.2 112.8  C 220.2 119.856  214.656 125.4  207.6 125.4  " fill-rule="nonzero" fill="#cccccc" stroke="none" />
    <path d="M 16 227  L 16 152.2  L 101.75 118.2  L 221.8 190.4432  L 290.4 138.6  L 359 190.4432  L 359 227  L 16 227  " fill-rule="nonzero" fill="#169bd5" stroke="none" />
  </g>
</svg>