<?xml version="1.0" encoding="utf-8"?>
<svg version="1.1" xmlns:xlink="http://www.w3.org/1999/xlink" width="80px" height="80px" xmlns="http://www.w3.org/2000/svg">
  <defs>
    <mask fill="white" id="clip51">
      <path d="M 71 220  C 48.8 220  31 202.2  31 180  L 31 180  C 31 157.8  48.8 140  71 140  L 71 140  C 93.2 140  111 157.8  111 180  L 111 180  C 111 202.2  93.2 220  71 220  " fill-rule="evenodd" />
    </mask>
  </defs>
  <g transform="matrix(1 0 0 1 -31 -140 )">
    <path d="M 31 140  L 111 140  L 111 220  L 31 220  L 31 140  " fill-rule="nonzero" fill="#cccccc" stroke="none" mask="url(#clip51)" />
    <path d="M 37 146  L 105 146  L 105 214  L 37 214  L 37 146  " fill-rule="nonzero" fill="#ffffff" stroke="none" mask="url(#clip51)" />
    <path d="M 78.6 164  C 75.24 164  72.6 161.36  72.6 158  C 72.6 154.64  75.24 152  78.6 152  C 81.96 152  84.6 154.64  84.6 158  C 84.6 161.36  81.96 164  78.6 164  " fill-rule="nonzero" fill="#cccccc" stroke="none" mask="url(#clip51)" />
    <path d="M 39 212  L 39 176.8  L 55 160.8  L 77.4 173.6  L 90.2 170.4  L 103 173.6  L 103 212  L 39 212  " fill-rule="nonzero" fill="#169bd5" stroke="none" mask="url(#clip51)" />
  </g>
</svg>