<?xml version="1.0" encoding="utf-8"?>
<svg version="1.1" xmlns:xlink="http://www.w3.org/1999/xlink" width="123px" height="93px" xmlns="http://www.w3.org/2000/svg">
  <g transform="matrix(1 0 0 1 -528 -112 )">
    <path d="M 528 112  L 651 112  L 651 205  L 528 205  L 528 112  " fill-rule="nonzero" fill="#cccccc" stroke="none" />
    <path d="M 535 119  L 644 119  L 644 198  L 535 198  L 535 119  " fill-rule="nonzero" fill="#ffffff" stroke="none" />
    <path d="M 598.935 139.9  C 595.029 139.9  591.96 136.831  591.96 132.925  C 591.96 129.019  595.029 125.95  598.935 125.95  C 602.841 125.95  605.91 129.019  605.91 132.925  C 605.91 136.831  602.841 139.9  598.935 139.9  " fill-rule="nonzero" fill="#cccccc" stroke="none" />
    <path d="M 538 196  L 538 155.3  L 564 136.8  L 600.4 162.429268292683  L 621.2 147.9  L 642 162.429268292683  L 642 196  L 538 196  " fill-rule="nonzero" fill="#169bd5" stroke="none" />
  </g>
</svg>