<?xml version="1.0" encoding="utf-8"?>
<svg version="1.1" xmlns:xlink="http://www.w3.org/1999/xlink" width="12px" height="12px" viewBox="36 210  12 12" xmlns="http://www.w3.org/2000/svg">
  <path d="M 42 210  C 45.36 210  48 212.64  48 216  C 48 219.36  45.36 222  42 222  C 38.64 222  36 219.36  36 216  C 36 212.64  38.64 210  42 210  Z " fill-rule="nonzero" fill="#ffffff" stroke="none" />
  <path d="M 42 210.5  C 45.08 210.5  47.5 212.92  47.5 216  C 47.5 219.08  45.08 221.5  42 221.5  C 38.92 221.5  36.5 219.08  36.5 216  C 36.5 212.92  38.92 210.5  42 210.5  Z " stroke-width="1" stroke="#797979" fill="none" />
  <path d="M 42 219  C 40.32 219  39 217.68  39 216  C 39 214.32  40.32 213  42 213  C 43.68 213  45 214.32  45 216  C 45 217.68  43.68 219  42 219  " fill-rule="nonzero" fill="#797979" stroke="none" />
</svg>