<?xml version="1.0" encoding="utf-8"?>
<svg version="1.1" xmlns:xlink="http://www.w3.org/1999/xlink" width="12px" height="12px" viewBox="36 239  12 12" xmlns="http://www.w3.org/2000/svg">
  <path d="M 42 239  C 45.36 239  48 241.64  48 245  C 48 248.36  45.36 251  42 251  C 38.64 251  36 248.36  36 245  C 36 241.64  38.64 239  42 239  Z " fill-rule="nonzero" fill="#ffffff" stroke="none" />
  <path d="M 42 239.5  C 45.08 239.5  47.5 241.92  47.5 245  C 47.5 248.08  45.08 250.5  42 250.5  C 38.92 250.5  36.5 248.08  36.5 245  C 36.5 241.92  38.92 239.5  42 239.5  Z " stroke-width="1" stroke="#797979" fill="none" />
  <path d="M 42 248  C 40.32 248  39 246.68  39 245  C 39 243.32  40.32 242  42 242  C 43.68 242  45 243.32  45 245  C 45 246.68  43.68 248  42 248  " fill-rule="nonzero" fill="#797979" stroke="none" />
</svg>