<?xml version="1.0" encoding="utf-8"?>
<svg version="1.1" xmlns:xlink="http://www.w3.org/1999/xlink" width="12px" height="12px" viewBox="36 266  12 12" xmlns="http://www.w3.org/2000/svg">
  <path d="M 42 266  C 45.36 266  48 268.64  48 272  C 48 275.36  45.36 278  42 278  C 38.64 278  36 275.36  36 272  C 36 268.64  38.64 266  42 266  Z " fill-rule="nonzero" fill="#ffffff" stroke="none" />
  <path d="M 42 266.5  C 45.08 266.5  47.5 268.92  47.5 272  C 47.5 275.08  45.08 277.5  42 277.5  C 38.92 277.5  36.5 275.08  36.5 272  C 36.5 268.92  38.92 266.5  42 266.5  Z " stroke-width="1" stroke="#797979" fill="none" />
  <path d="M 42 275  C 40.32 275  39 273.68  39 272  C 39 270.32  40.32 269  42 269  C 43.68 269  45 270.32  45 272  C 45 273.68  43.68 275  42 275  " fill-rule="nonzero" fill="#797979" stroke="none" />
</svg>