<?xml version="1.0" encoding="utf-8"?>
<svg version="1.1" xmlns:xlink="http://www.w3.org/1999/xlink" width="12px" height="12px" viewBox="36 295  12 12" xmlns="http://www.w3.org/2000/svg">
  <path d="M 42 295  C 45.36 295  48 297.64  48 301  C 48 304.36  45.36 307  42 307  C 38.64 307  36 304.36  36 301  C 36 297.64  38.64 295  42 295  Z " fill-rule="nonzero" fill="#ffffff" stroke="none" />
  <path d="M 42 295.5  C 45.08 295.5  47.5 297.92  47.5 301  C 47.5 304.08  45.08 306.5  42 306.5  C 38.92 306.5  36.5 304.08  36.5 301  C 36.5 297.92  38.92 295.5  42 295.5  Z " stroke-width="1" stroke="#797979" fill="none" />
  <path d="M 42 304  C 40.32 304  39 302.68  39 301  C 39 299.32  40.32 298  42 298  C 43.68 298  45 299.32  45 301  C 45 302.68  43.68 304  42 304  " fill-rule="nonzero" fill="#797979" stroke="none" />
</svg>