<?xml version="1.0" encoding="utf-8"?>
<svg version="1.1" xmlns:xlink="http://www.w3.org/1999/xlink" width="12px" height="12px" viewBox="651 424.5  12 12" xmlns="http://www.w3.org/2000/svg">
  <path d="M 657 424.5  C 660.36 424.5  663 427.14  663 430.5  C 663 433.86  660.36 436.5  657 436.5  C 653.64 436.5  651 433.86  651 430.5  C 651 427.14  653.64 424.5  657 424.5  Z " fill-rule="nonzero" fill="#ffffff" stroke="none" />
  <path d="M 657 425  C 660.08 425  662.5 427.42  662.5 430.5  C 662.5 433.58  660.08 436  657 436  C 653.92 436  651.5 433.58  651.5 430.5  C 651.5 427.42  653.92 425  657 425  Z " stroke-width="1" stroke="#797979" fill="none" />
  <path d="M 657 433.5  C 655.32 433.5  654 432.18  654 430.5  C 654 428.82  655.32 427.5  657 427.5  C 658.68 427.5  660 428.82  660 430.5  C 660 432.18  658.68 433.5  657 433.5  " fill-rule="nonzero" fill="#797979" stroke="none" />
</svg>