<?xml version="1.0" encoding="utf-8"?>
<svg version="1.1" xmlns:xlink="http://www.w3.org/1999/xlink" width="150px" height="158px" xmlns="http://www.w3.org/2000/svg">
  <g transform="matrix(1 0 0 1 -30 -473 )">
    <path d="M 30 473  L 180 473  L 180 631  L 30 631  L 30 473  " fill-rule="nonzero" fill="#cccccc" stroke="none" />
    <path d="M 41 484  L 169 484  L 169 620  L 41 620  L 41 484  " fill-rule="nonzero" fill="#ffffff" stroke="none" />
    <path d="M 119.25 519.2  C 112.95 519.2  108 514.25  108 507.95  C 108 501.65  112.95 496.7  119.25 496.7  C 125.55 496.7  130.5 501.65  130.5 507.95  C 130.5 514.25  125.55 519.2  119.25 519.2  " fill-rule="nonzero" fill="#cccccc" stroke="none" />
    <path d="M 45 616  L 45 545.6  L 75 513.6  L 117 539.2  L 141 532.8  L 165 539.2  L 165 616  L 45 616  " fill-rule="nonzero" fill="#169bd5" stroke="none" />
  </g>
</svg>