<?xml version="1.0" encoding="utf-8"?>
<svg version="1.1" xmlns:xlink="http://www.w3.org/1999/xlink" width="376px" height="183px" xmlns="http://www.w3.org/2000/svg">
  <g transform="matrix(1 0 0 1 0 -67 )">
    <path d="M 0 67  L 376 67  L 376 250  L 0 250  L 0 67  " fill-rule="nonzero" fill="#cccccc" stroke="none" />
    <path d="M 13 80  L 363 80  L 363 237  L 13 237  L 13 80  " fill-rule="nonzero" fill="#ffffff" stroke="none" />
    <path d="M 209.245 121.9  C 201.559 121.9  195.52 115.861  195.52 108.175  C 195.52 100.489  201.559 94.45  209.245 94.45  C 216.931 94.45  222.97 100.489  222.97 108.175  C 222.97 115.861  216.931 121.9  209.245 121.9  " fill-rule="nonzero" fill="#cccccc" stroke="none" />
    <path d="M 18 233  L 18 151.6  L 103.25 114.6  L 222.6 189.78085106383  L 290.8 136.8  L 359 189.78085106383  L 359 233  L 18 233  " fill-rule="nonzero" fill="#169bd5" stroke="none" />
  </g>
</svg>