<?xml version="1.0" encoding="utf-8"?>
<svg version="1.1" xmlns:xlink="http://www.w3.org/1999/xlink" width="40px" height="46px" xmlns="http://www.w3.org/2000/svg">
  <defs>
    <filter x="503px" y="110px" width="40px" height="46px" filterUnits="userSpaceOnUse" id="filter55">
      <feOffset dx="1" dy="1" in="SourceAlpha" result="shadowOffsetInner" />
      <feGaussianBlur stdDeviation="2.5" in="shadowOffsetInner" result="shadowGaussian" />
      <feComposite in2="shadowGaussian" operator="atop" in="SourceAlpha" result="shadowComposite" />
      <feColorMatrix type="matrix" values="0 0 0 0 0  0 0 0 0 0  0 0 0 0 0  0 0 0 0.698039215686274 0  " in="shadowComposite" />
    </filter>
    <g id="widget56">
      <path d="M 522 114  C 530.4 114  537 121.92  537 132  C 537 142.08  530.4 150  522 150  C 513.6 150  507 142.08  507 132  C 507 121.92  513.6 114  522 114  Z " fill-rule="nonzero" fill="#009dd9" stroke="none" />
      <path d="M 522 114.5  C 530.12 114.5  536.5 122.2  536.5 132  C 536.5 141.8  530.12 149.5  522 149.5  C 513.88 149.5  507.5 141.8  507.5 132  C 507.5 122.2  513.88 114.5  522 114.5  Z " stroke-width="1" stroke="#ffffff" fill="none" />
    </g>
  </defs>
  <g transform="matrix(1 0 0 1 -503 -110 )">
    <use xlink:href="#widget56" filter="url(#filter55)" />
    <use xlink:href="#widget56" />
  </g>
</svg>