<?xml version="1.0" encoding="utf-8"?>
<svg version="1.1" xmlns:xlink="http://www.w3.org/1999/xlink" width="108px" height="93px" xmlns="http://www.w3.org/2000/svg">
  <g>
    <path d="M 0 0  L 108 0  L 108 93  L 0 93  L 0 0  " fill-rule="nonzero" fill="#cccccc" stroke="none" />
    <path d="M 7 7  L 101 7  L 101 86  L 7 86  L 7 7  " fill-rule="nonzero" fill="#ffffff" stroke="none" />
    <path d="M 63.135 27.9  C 59.229 27.9  56.16 24.831  56.16 20.925  C 56.16 17.019  59.229 13.95  63.135 13.95  C 67.041 13.95  70.11 17.019  70.11 20.925  C 70.11 24.831  67.041 27.9  63.135 27.9  " fill-rule="nonzero" fill="#cccccc" stroke="none" />
    <path d="M 10 84  L 10 43.3  L 32.25 24.8  L 63.4 45.7666666666667  L 81.2 35.9  L 99 45.7666666666667  L 99 84  L 10 84  " fill-rule="nonzero" fill="#169bd5" stroke="none" />
  </g>
</svg>