<?xml version="1.0" encoding="utf-8"?>
<svg version="1.1" xmlns:xlink="http://www.w3.org/1999/xlink" width="10px" height="10px" xmlns="http://www.w3.org/2000/svg">
  <g transform="matrix(1 0 0 1 -19 -850 )">
    <path d="M 24 850  C 26.8 850  29 852.2  29 855  C 29 857.8  26.8 860  24 860  C 21.2 860  19 857.8  19 855  C 19 852.2  21.2 850  24 850  Z " fill-rule="nonzero" fill="#000000" stroke="none" />
    <path d="M 24 850.5  C 26.52 850.5  28.5 852.48  28.5 855  C 28.5 857.52  26.52 859.5  24 859.5  C 21.48 859.5  19.5 857.52  19.5 855  C 19.5 852.48  21.48 850.5  24 850.5  Z " stroke-width="1" stroke="#797979" fill="none" />
  </g>
</svg>