<?xml version="1.0" encoding="utf-8"?>
<svg version="1.1" xmlns:xlink="http://www.w3.org/1999/xlink" width="82px" height="70px" xmlns="http://www.w3.org/2000/svg">
  <g transform="matrix(1 0 0 1 -89 -886 )">
    <path d="M 89 886  L 171 886  L 171 956  L 89 956  L 89 886  " fill-rule="nonzero" fill="#cccccc" stroke="none" />
    <path d="M 94 891  L 166 891  L 166 951  L 94 951  L 94 891  " fill-rule="nonzero" fill="#ffffff" stroke="none" />
    <path d="M 136.89 907  C 133.95 907  131.64 904.69  131.64 901.75  C 131.64 898.81  133.95 896.5  136.89 896.5  C 139.83 896.5  142.14 898.81  142.14 901.75  C 142.14 904.69  139.83 907  136.89 907  " fill-rule="nonzero" fill="#cccccc" stroke="none" />
    <path d="M 96 949  L 96 918.2  L 113 904.2  L 136.8 920.317073170732  L 150.4 912.6  L 164 920.317073170732  L 164 949  L 96 949  " fill-rule="nonzero" fill="#169bd5" stroke="none" />
  </g>
</svg>