<?xml version="1.0" encoding="utf-8"?>
<svg version="1.1" xmlns:xlink="http://www.w3.org/1999/xlink" width="50px" height="50px" xmlns="http://www.w3.org/2000/svg">
  <g transform="matrix(1 0 0 1 -57 -75 )">
    <path d="M 57 75  L 107 75  L 107 125  L 57 125  L 57 75  " fill-rule="nonzero" fill="#cccccc" stroke="none" />
    <path d="M 61 79  L 103 79  L 103 121  L 61 121  L 61 79  " fill-rule="nonzero" fill="#ffffff" stroke="none" />
    <path d="M 86.75 90  C 84.65 90  83 88.35  83 86.25  C 83 84.15  84.65 82.5  86.75 82.5  C 88.85 82.5  90.5 84.15  90.5 86.25  C 90.5 88.35  88.85 90  86.75 90  " fill-rule="nonzero" fill="#cccccc" stroke="none" />
    <path d="M 63 120  L 63 98.55  L 72.75 88.8  L 86.4 96.6  L 94.2 94.65  L 102 96.6  L 102 120  L 63 120  " fill-rule="nonzero" fill="#169bd5" stroke="none" />
  </g>
</svg>