<?xml version="1.0" encoding="utf-8"?>
<svg version="1.1" xmlns:xlink="http://www.w3.org/1999/xlink" width="26px" height="26px" xmlns="http://www.w3.org/2000/svg">
  <defs>
    <mask fill="white" id="clip67">
      <path d="M 33 76  C 25.785 76  20 70.215  20 63  L 20 63  C 20 55.785  25.785 50  33 50  L 33 50  C 40.215 50  46 55.785  46 63  L 46 63  C 46 70.215  40.215 76  33 76  " fill-rule="evenodd" />
    </mask>
  </defs>
  <g transform="matrix(1 0 0 1 -20 -50 )">
    <path d="M 20 50  L 46 50  L 46 76  L 20 76  L 20 50  " fill-rule="nonzero" fill="#cccccc" stroke="none" mask="url(#clip67)" />
    <path d="M 22 52  L 44 52  L 44 74  L 22 74  L 22 52  " fill-rule="nonzero" fill="#ffffff" stroke="none" mask="url(#clip67)" />
    <path d="M 35.47 57.8  C 34.378 57.8  33.52 56.942  33.52 55.85  C 33.52 54.758  34.378 53.9  35.47 53.9  C 36.562 53.9  37.42 54.758  37.42 55.85  C 37.42 56.942  36.562 57.8  35.47 57.8  " fill-rule="nonzero" fill="#cccccc" stroke="none" mask="url(#clip67)" />
    <path d="M 23 74  L 23 62.45  L 28.25 57.2  L 35.6 61.4  L 39.8 60.35  L 44 61.4  L 44 74  L 23 74  " fill-rule="nonzero" fill="#169bd5" stroke="none" mask="url(#clip67)" />
  </g>
</svg>