<?xml version="1.0" encoding="utf-8"?>
<svg version="1.1" xmlns:xlink="http://www.w3.org/1999/xlink" width="64px" height="34px" xmlns="http://www.w3.org/2000/svg">
  <g transform="matrix(1 0 0 1 -20 -102 )">
    <path d="M 20 102  L 84 102  L 84 136  L 20 136  L 20 102  " fill-rule="nonzero" fill="#cccccc" stroke="none" />
    <path d="M 22 104  L 82 104  L 82 134  L 22 134  L 22 104  " fill-rule="nonzero" fill="#ffffff" stroke="none" />
    <path d="M 55.83 112.2  C 54.402 112.2  53.28 111.078  53.28 109.65  C 53.28 108.222  54.402 107.1  55.83 107.1  C 57.258 107.1  58.38 108.222  58.38 109.65  C 58.38 111.078  57.258 112.2  55.83 112.2  " fill-rule="nonzero" fill="#cccccc" stroke="none" />
    <path d="M 23 133  L 23 117.6  L 37.5 110.6  L 57.8 124.075  L 69.4 114.8  L 81 124.075  L 81 133  L 23 133  " fill-rule="nonzero" fill="#169bd5" stroke="none" />
  </g>
</svg>