<?xml version="1.0" encoding="utf-8"?>
<svg version="1.1" xmlns:xlink="http://www.w3.org/1999/xlink" width="85px" height="68px" xmlns="http://www.w3.org/2000/svg">
  <g transform="matrix(1 0 0 1 -23 -24 )">
    <path d="M 23 24  L 108 24  L 108 92  L 23 92  L 23 24  " fill-rule="nonzero" fill="#cccccc" stroke="none" />
    <path d="M 28 29  L 103 29  L 103 87  L 28 87  L 28 29  " fill-rule="nonzero" fill="#ffffff" stroke="none" />
    <path d="M 72.3 44.4  C 69.444 44.4  67.2 42.156  67.2 39.3  C 67.2 36.444  69.444 34.2  72.3 34.2  C 75.156 34.2  77.4 36.444  77.4 39.3  C 77.4 42.156  75.156 44.4  72.3 44.4  " fill-rule="nonzero" fill="#cccccc" stroke="none" />
    <path d="M 30 86  L 30 55.75  L 48 42  L 73.2 59.6  L 87.6 50.25  L 102 59.6  L 102 86  L 30 86  " fill-rule="nonzero" fill="#169bd5" stroke="none" />
  </g>
</svg>